<svg version="1.1" xmlns="http://www.w3.org/2000/svg" xmlns:xlink="http://www.w3.org/1999/xlink" width="40" height="40" viewBox="0 -0.5 40 40" shape-rendering="geometricPrecision">
    <path stroke="#550906" d="M6 2h9M6 3h1M5 4h2" />
    <path stroke="#c66b49" d="M7 3h8M18 3h1M7 4h1M12 4h1M18 4h2M18 5h2M5 6h3M12 6h1M7 7h8M10 8h4M2 13h2M2 14h2" />
    <path stroke="#000000" d="M8 4h4M13 4h3M5 5h4M11 5h3M15 5h1M17 5h1M8 6h4M13 6h6M5 7h2M15 7h4M6 8h4M14 8h4M5 9h5M14 9h3M4 10h6M14 10h2M3 11h7M14 11h2M2 12h8M14 12h2M4 13h1M7 13h2M14 13h2M6 14h3M13 14h2M4 16h2M19 16h1M4 17h2M17 17h3M4 18h2M16 18h3M4 19h1M16 19h2M20 20h16M20 21h1M24 21h2M27 21h4M32 21h1M35 21h1M20 22h1M22 22h1M24 22h2M27 22h4M33 22h3M20 23h1M23 23h1M25 23h1M27 23h4M32 23h1M34 23h2M20 24h1M24 24h2M30 24h1M32 24h2M35 24h1M20 25h16M20 26h1M25 26h1M30 26h1M35 26h1M20 27h4M25 27h1M27 27h1M30 27h1M32 27h2M35 27h1M20 28h1M22 28h2M25 28h1M27 28h2M30 28h1M35 28h1M20 29h1M25 29h1M27 29h2M30 29h1M32 29h4M20 30h16M20 31h1M22 31h14M20 32h2M23 32h13M20 33h1M22 33h14M20 34h3M25 34h11M20 35h16" />
    <path stroke="#dddddd" d="M9 5h2M14 5h1" />
    <path stroke="#ffffff" d="M10 9h1M13 9h1M10 10h2M13 10h1M10 11h2M13 11h1M10 12h2M13 12h1M9 13h2M12 13h2" />
    <path stroke="#fe0000" d="M11 9h2M12 10h1M12 11h1M12 12h1M11 13h1M10 14h1" />
    <path stroke="#2f2f2f" d="M9 14h1M11 14h2M7 15h9M6 16h11M6 17h3M14 17h3M6 18h1M15 18h1M37 21h1M37 22h1M37 23h1M37 24h1M37 25h1M37 26h1M37 27h1M37 28h1M37 29h1M37 30h1M37 31h1M37 32h1M37 33h1M37 34h1M37 35h1M37 36h1M21 37h17" />
    <path stroke="#929292" d="M20 19h17M19 20h1M19 21h1M19 22h1M19 23h1M19 24h1M19 25h1M19 26h1M19 27h1M19 28h1M19 29h1M19 30h1M19 31h1M19 32h1M19 33h1M19 34h1M19 35h1M19 36h1" />
    <path stroke="#676767" d="M36 20h1M36 21h1M36 22h1M36 23h1M36 24h1M36 25h1M36 26h1M36 27h1M36 28h1M36 29h1M36 30h1M36 31h1M36 32h1M36 33h1M36 34h1M36 35h1M20 36h17" />
    <path stroke="#00ae10" d="M21 21h3M26 21h1M31 21h1M33 21h2M21 22h1M23 22h1M26 22h1M31 22h2M21 23h2M24 23h1M26 23h1M31 23h1M33 23h1M21 24h3M26 24h4M31 24h1M34 24h1M21 26h4M26 26h4M31 26h4M24 27h1M26 27h1M28 27h2M31 27h1M34 27h1M21 28h1M24 28h1M26 28h1M29 28h1M31 28h4M21 29h4M26 29h1M29 29h1M31 29h1M21 31h1M22 32h1M21 33h1M23 34h2" />
</svg>